<mxfile host="app.diagrams.net" modified="2024-03-21T09:57:42.883Z" agent="Mozilla/5.0 (Macintosh; Intel Mac OS X 10_15_7) AppleWebKit/605.1.15 (KHTML, like Gecko) Version/17.4 Safari/605.1.15" version="24.0.7" etag="qvfmWjuUYdGLXHzgaH-2" type="github">
  <diagram name="Page-1" id="hOh0Bt020XmghCTwsFra">
    <mxGraphModel>
      <root>
        <mxCell id="0" />
        <mxCell id="1" parent="0" />
      </root>
    </mxGraphModel>
  </diagram>
</mxfile>
